<?xml version="1.0" encoding="UTF-8" standalone="no"?>
<svg
   xmlns:dc="http://purl.org/dc/elements/1.1/"
   xmlns:cc="http://creativecommons.org/ns#"
   xmlns:rdf="http://www.w3.org/1999/02/22-rdf-syntax-ns#"
   xmlns:svg="http://www.w3.org/2000/svg"
   xmlns="http://www.w3.org/2000/svg"
   width="36"
   height="36"
   id="svg4359"
   version="1.1">
  <defs
     id="defs4361">
    <clipPath
       id="clipPath6">
      <rect
         id="rect8"
         x="26.85"
         y="220.75"
         width="3.825"
         height="6.375"
         style="color:#bebebe;fill:#bebebe" />
    </clipPath>
    <clipPath
       id="clipPath10">
      <rect
         id="rect12"
         x="26.966"
         y="221.33"
         width="2.898"
         height="5.2160001"
         style="color:#bebebe;fill:#bebebe" />
    </clipPath>
    <clipPath
       id="clipPath14">
      <rect
         id="rect16"
         x="26.999001"
         y="221.5"
         width="1.876"
         height="4.8740001"
         style="color:#bebebe;fill:#bebebe" />
    </clipPath>
    <clipPath
       id="clipPath3025">
      <rect
         height="4.8740001"
         width="1.876"
         y="221.5"
         x="26.999001"
         id="rect3027"
         style="color:#bebebe;fill:#bebebe" />
    </clipPath>
    <clipPath
       id="clipPath3021">
      <rect
         height="5.2160001"
         width="2.898"
         y="221.33"
         x="26.966"
         id="rect3023"
         style="color:#bebebe;fill:#bebebe" />
    </clipPath>
    <clipPath
       id="clipPath3017">
      <rect
         height="6.375"
         width="3.825"
         y="220.75"
         x="26.85"
         id="rect3019"
         style="color:#bebebe;fill:#bebebe" />
    </clipPath>
  </defs>
  <metadata
     id="metadata4364">
    <rdf:RDF>
      <cc:Work
         rdf:about="">
        <dc:format>image/svg+xml</dc:format>
        <dc:type
           rdf:resource="http://purl.org/dc/dcmitype/StillImage" />
        <dc:title></dc:title>
      </cc:Work>
    </rdf:RDF>
  </metadata>
  <g
     style="stroke:#f6f5f0"
     transform="translate(0,4.2711864)"
     id="g4189">
    <path
       id="rect4147"
       d="m 24.443359,2.5081105 c -1.905137,-0.063842 -3.383619,1.8078508 -3.134765,3.6405941 0.100936,0.631195 -0.860837,0.19968 -1.264572,0.326203 H 15.058594 C 15.177611,5.0929367 14.759044,3.5441296 13.415654,2.8868884 12.079492,2.2617455 10.567645,2.5947085 9.1398157,2.5100636 7.1919321,2.3054122 5.4830646,4.1460289 5.7363281,6.0663536 c 0.012976,0.895401 -1.4467489,0.4404645 -2.2575872,1.051243 -1.327437,0.834953 -1.7926196,2.458591 -1.6564753,3.9464534 0.012834,5.032044 -0.025761,10.06573 0.019462,15.096739 0.1607389,2.062024 2.2100466,3.610444 4.2324607,3.3649 8.2460107,-0.0129 16.4936707,0.02585 24.7386467,-0.01946 2.062024,-0.160739 3.610443,-2.210047 3.364899,-4.232461 -0.01205,-5.140262 0.02418,-10.282019 -0.01825,-15.4213404 -0.146379,-1.78561 -1.741187,-3.293907 -3.528626,-3.357987 C 30.748348,5.1064407 30.341751,3.5457901 28.98792,2.884935 27.651758,2.2597926 26.139911,2.5927553 24.712082,2.5081105 Z m 0,2 c 1.163631,0.047702 2.352185,-0.1023222 3.498064,0.088319 0.683782,0.1616082 1.008986,1.7230568 0.436522,1.8784778 h -5.069351 c -0.05495,-0.8368437 0.002,-1.9667637 1.134765,-1.9667968 z m -15.5722652,0.00195 c 1.1636302,0.047702 2.3521842,-0.1023219 3.4980632,0.088319 0.682729,0.1608069 1.009789,1.7221299 0.436523,1.8765249 H 7.7363281 C 7.6810441,5.638544 7.7395781,4.5099631 8.8710938,4.5100605 Z m -3.3027344,3.964844 c 8.3483036,0.00586 16.6971736,-0.01172 25.0451236,0.00879 1.219744,0.070492 1.716116,1.354786 1.564251,2.4117395 -0.0059,5.021928 0.01172,10.044422 -0.0088,15.065996 -0.07049,1.219744 -1.354784,1.716117 -2.411738,1.564252 -8.123491,-0.0059 -16.247548,0.01172 -24.3706844,-0.0088 -1.2197447,-0.07049 -1.7161169,-1.354785 -1.564252,-2.411739 0.00586,-5.021928 -0.011719,-10.044422 0.00879,-15.065996 0.062815,-0.8763925 0.86233,-1.5876625 1.7372998,-1.5642525 z"
       style="color:#000000;font-style:normal;font-variant:normal;font-weight:normal;font-stretch:normal;font-size:medium;line-height:normal;font-family:sans-serif;font-variant-ligatures:normal;font-variant-position:normal;font-variant-caps:normal;font-variant-numeric:normal;font-variant-alternates:normal;font-feature-settings:normal;text-indent:0;text-align:start;text-decoration:none;text-decoration-line:none;text-decoration-style:solid;text-decoration-color:#000000;letter-spacing:normal;word-spacing:normal;text-transform:none;writing-mode:lr-tb;direction:ltr;text-orientation:mixed;dominant-baseline:auto;baseline-shift:baseline;text-anchor:start;white-space:normal;shape-padding:0;clip-rule:nonzero;display:inline;overflow:visible;visibility:visible;opacity:1;isolation:auto;mix-blend-mode:normal;color-interpolation:sRGB;color-interpolation-filters:linearRGB;solid-color:#000000;solid-opacity:1;vector-effect:none;fill:#ffffff;fill-opacity:1;fill-rule:nonzero;stroke:none;stroke-width:2;stroke-linecap:butt;stroke-linejoin:miter;stroke-miterlimit:4;stroke-dasharray:none;stroke-dashoffset:0;stroke-opacity:1;color-rendering:auto;image-rendering:auto;shape-rendering:auto;text-rendering:auto;enable-background:accumulate" />
  </g>
  <g
     transform="translate(0.68117103,-0.31704821)"
     id="text4194"
     style="font-style:normal;font-weight:normal;font-size:40px;line-height:125%;font-family:sans-serif;letter-spacing:0px;word-spacing:0px;fill:#000000;fill-opacity:1;stroke:#ffffff;stroke-width:1px;stroke-linecap:butt;stroke-linejoin:miter;stroke-opacity:1">
    <path
       id="path4201"
       style="font-style:normal;font-variant:normal;font-weight:normal;font-stretch:normal;font-size:15px;font-family:'Fira Code';-inkscape-font-specification:'Fira Code';fill:#ffffff;stroke:none"
       d="m 6.8906631,3.0440174 v 1.08 h 5.2499999 v -1.08 z" />
    <path
       id="path4203"
       style="font-style:normal;font-variant:normal;font-weight:normal;font-stretch:normal;font-size:15px;font-family:'Fira Code';-inkscape-font-specification:'Fira Code';fill:#ffffff;stroke:none"
       d="M 26.129029,2.9746106 V 0.73961067 h -1.17 V 2.9746106 h -2.16 v 1.05 h 2.16 v 2.22 h 1.17 v -2.22 h 2.19 v -1.05 z" />
  </g>
</svg>
