<?xml version="1.0" encoding="UTF-8" standalone="no"?>
<svg
   xmlns:dc="http://purl.org/dc/elements/1.1/"
   xmlns:cc="http://creativecommons.org/ns#"
   xmlns:rdf="http://www.w3.org/1999/02/22-rdf-syntax-ns#"
   xmlns:svg="http://www.w3.org/2000/svg"
   xmlns="http://www.w3.org/2000/svg"
   version="1.1"
   id="svg4359"
   height="36"
   width="36">
  <defs
     id="defs4361">
    <clipPath
       id="clipPath6">
      <rect
         style="color:#bebebe;fill:#bebebe"
         height="6.375"
         width="3.825"
         y="220.75"
         x="26.85"
         id="rect8" />
    </clipPath>
    <clipPath
       id="clipPath10">
      <rect
         style="color:#bebebe;fill:#bebebe"
         height="5.2160001"
         width="2.898"
         y="221.33"
         x="26.966"
         id="rect12" />
    </clipPath>
    <clipPath
       id="clipPath14">
      <rect
         style="color:#bebebe;fill:#bebebe"
         height="4.8740001"
         width="1.876"
         y="221.5"
         x="26.999001"
         id="rect16" />
    </clipPath>
    <clipPath
       id="clipPath3025">
      <rect
         style="color:#bebebe;fill:#bebebe"
         id="rect3027"
         x="26.999001"
         y="221.5"
         width="1.876"
         height="4.8740001" />
    </clipPath>
    <clipPath
       id="clipPath3021">
      <rect
         style="color:#bebebe;fill:#bebebe"
         id="rect3023"
         x="26.966"
         y="221.33"
         width="2.898"
         height="5.2160001" />
    </clipPath>
    <clipPath
       id="clipPath3017">
      <rect
         style="color:#bebebe;fill:#bebebe"
         id="rect3019"
         x="26.85"
         y="220.75"
         width="3.825"
         height="6.375" />
    </clipPath>
  </defs>
  <metadata
     id="metadata4364">
    <rdf:RDF>
      <cc:Work
         rdf:about="">
        <dc:format>image/svg+xml</dc:format>
        <dc:type
           rdf:resource="http://purl.org/dc/dcmitype/StillImage" />
        <dc:title></dc:title>
      </cc:Work>
    </rdf:RDF>
  </metadata>
  <g
     transform="matrix(0.93844637,0,0,0.93844637,1.1079653,0.82327627)"
     id="g872">
    <g
       transform="translate(-2.1740764)"
       id="g908">
      <path
         id="rect829"
         d="m 10.90621,1.2539062 c -0.9282973,0 -1.6754167,0.90928 -1.6754167,2.0390626 V 30.521838 H 26.691068 V 3.2929688 c 0,-1.1297826 -0.747119,-2.0390626 -1.675416,-2.0390626 z m 0.9019,1.8203126 h 12.305641 c 0.544266,0 0.982141,0.5329142 0.982141,1.1953124 v 7.6639358 c 0,0.662399 -0.437875,1.195313 -0.982141,1.195313 H 11.80811 c -0.544267,0 -0.982141,-0.532914 -0.982141,-1.195313 V 4.2695312 c 0,-0.6623982 0.437874,-1.1953124 0.982141,-1.1953124 z"
         style="opacity:1;fill:#ffffff;fill-opacity:1;stroke:none;stroke-width:0.45322731;stroke-miterlimit:4;stroke-dasharray:none" />
      <rect
         ry="0"
         y="31.523655"
         x="6.727417"
         height="3.8291631"
         width="22.467028"
         id="rect868"
         style="opacity:1;fill:#ffffff;fill-opacity:1;stroke:none;stroke-width:0.45322731;stroke-miterlimit:4;stroke-dasharray:none" />
      <path
         style="color:#000000;font-style:normal;font-variant:normal;font-weight:normal;font-stretch:normal;font-size:medium;line-height:normal;font-family:sans-serif;font-variant-ligatures:normal;font-variant-position:normal;font-variant-caps:normal;font-variant-numeric:normal;font-variant-alternates:normal;font-feature-settings:normal;text-indent:0;text-align:start;text-decoration:none;text-decoration-line:none;text-decoration-style:solid;text-decoration-color:#000000;letter-spacing:normal;word-spacing:normal;text-transform:none;writing-mode:lr-tb;direction:ltr;text-orientation:mixed;dominant-baseline:auto;baseline-shift:baseline;text-anchor:start;white-space:normal;shape-padding:0;clip-rule:nonzero;display:inline;overflow:visible;visibility:visible;opacity:1;isolation:auto;mix-blend-mode:normal;color-interpolation:sRGB;color-interpolation-filters:linearRGB;solid-color:#000000;solid-opacity:1;vector-effect:none;fill:#ffffff;fill-opacity:1;fill-rule:nonzero;stroke:none;stroke-width:1.06559098px;stroke-linecap:butt;stroke-linejoin:miter;stroke-miterlimit:4;stroke-dasharray:none;stroke-dashoffset:0;stroke-opacity:1;color-rendering:auto;image-rendering:auto;shape-rendering:auto;text-rendering:auto;enable-background:accumulate"
         d="m 28.117371,1.6716932 -0.42726,0.1601855 c 1.663149,2.0289998 -0.335539,5.7859323 0.989785,6.6642148 0,0 1.833415,1.7138955 2.501953,3.6289065 0.668538,1.915011 1.106816,4.346113 1.283203,6.738281 0.176388,2.392169 0.09062,4.752922 -0.255859,6.515625 -0.173241,0.881352 -0.414141,1.611128 -0.691406,2.105469 -0.277265,0.494341 -0.560165,0.718841 -0.818359,0.771484 -0.578003,0.11785 -0.785282,0.02182 -0.970704,-0.195312 -0.185421,-0.217128 -0.340063,-0.694594 -0.382812,-1.373047 -0.0855,-1.356905 0.227281,-3.413472 0.503906,-5.511719 0.276625,-2.098247 0.521604,-4.242385 0.210938,-5.958984 -0.155334,-0.8583 -0.457327,-1.630282 -1.023438,-2.193359 -0.566111,-0.563078 -1.385836,-0.866005 -2.382812,-0.841797 l 0.02734,1.066406 c 0.783135,-0.01902 1.254279,0.181942 1.605469,0.53125 0.35119,0.349308 0.592843,0.898873 0.72461,1.626953 0.263532,1.456161 0.05558,3.550052 -0.21875,5.630859 -0.274326,2.080808 -0.610994,4.14322 -0.511719,5.71875 0.04964,0.787766 0.196909,1.48108 0.636719,1.996094 0.439809,0.515014 1.181458,0.712574 1.99414,0.546875 0.669878,-0.136582 1.169743,-0.644948 1.533203,-1.292969 0.36346,-0.64802 0.621433,-1.469711 0.808594,-2.421875 0.374321,-1.904327 0.455387,-4.331236 0.273437,-6.798828 C 33.345607,16.317564 32.900454,13.815065 32.187713,11.773438 31.64417,10.216474 30.123594,8.5545859 29.432283,7.8532925 29.217085,7.634988 29.613835,6.8632358 29.613835,6.8632358 30.243785,5.4294775 29.366689,2.6183797 28.117371,1.6716932 Z"
         id="path874" />
    </g>
  </g>
</svg>
